<?xml version="1.0" encoding="iso-8859-1"?>
<!-- Generator: Adobe Illustrator 19.0.0, SVG Export Plug-In . SVG Version: 6.00 Build 0)  -->
<svg xmlns="http://www.w3.org/2000/svg" xmlns:xlink="http://www.w3.org/1999/xlink" version="1.1" id="Layer_1" x="0px" y="0px" viewBox="0 0 434.371 434.371" style="enable-background:new 0 0 434.371 434.371;" xml:space="preserve" width="512" height="512">
<g>
	<g>
		<path style="fill:#FF5252;" d="M105.337,309.633c17.602-17.604,3.014-36.172-2.049-46.387l0.002,0.004    c-29.989-55.971-27.083-119.641,21.986-168.713c64.246-64.244,186.777-82.613,251.023-18.367s45.878,186.777-18.367,251.023    c-49.069,49.068-112.741,51.975-168.711,21.988h0.002c-10.217-5.065-28.784-19.652-46.386-2.049L105.337,309.633z"/>
		<path style="fill:#455a64;" d="M286.06,366.375L86.094,166.408c-6.001,32.102,0.491,65.666,17.196,96.842l-0.002-0.004    c5.063,10.215,19.651,28.783,2.049,46.387l37.501,37.5c17.602-17.604,36.168-3.016,46.386,2.049h-0.002    C220.395,365.885,253.96,372.379,286.06,366.375z"/>
		<path style="fill:#607d8b;" d="M166.531,246.846L25.205,378c-9.206,8.457-9.506,22.609-0.667,31.447l18.483,18.486    c8.839,8.838,22.991,8.537,31.449-0.668l131.152-141.326L166.531,246.846z"/>
	</g>
	<g>
		<circle style="fill:#cfd8dc;" cx="133.281" cy="67.535" r="67.535"/>
		<path style="fill:#607d8b;" d="M102.7,88.91c-2.853,0-5.58-1.637-6.835-4.404c-1.711-3.772-0.04-8.217,3.733-9.928l61.172-27.744    c3.77-1.711,8.217-0.04,9.928,3.732c1.71,3.772,0.04,8.217-3.733,9.928l-61.172,27.744C104.788,88.694,103.736,88.91,102.7,88.91z    "/>
		<path style="fill:#607d8b;" d="M126.032,105.408c-2.853,0-5.58-1.637-6.835-4.404c-1.71-3.772-0.039-8.217,3.733-9.928    l33.479-15.184c3.772-1.711,8.217-0.04,9.928,3.732c1.71,3.772,0.04,8.217-3.733,9.928l-33.479,15.184    C128.12,105.192,127.068,105.408,126.032,105.408z"/>
	</g>
</g>















</svg>
