<?xml version="1.0" encoding="UTF-8"?>
<svg width="305px" height="97px" viewBox="0 0 305 97" version="1.1" xmlns="http://www.w3.org/2000/svg" xmlns:xlink="http://www.w3.org/1999/xlink">
    <!-- Generator: Sketch 48.2 (47327) - http://www.bohemiancoding.com/sketch -->
    <title>Group 3</title>
    <desc>Created with Sketch.</desc>
    <defs>
        <rect id="path-1" x="93" y="3" width="115" height="88" rx="4"></rect>
        <rect id="path-2" x="0" y="47" width="115" height="48" rx="4"></rect>
        <rect id="path-3" x="190" y="26" width="115" height="67" rx="4"></rect>
        <rect id="path-4" x="0" y="0" width="99" height="51"></rect>
    </defs>
    <g id="Artboard" stroke="none" stroke-width="1" fill="none" fill-rule="evenodd" transform="translate(-333.000000, -323.000000)">
        <g id="Group-3" transform="translate(333.000000, 325.000000)">
            <g id="Rectangle-2">
                <use fill="#FFFFFF" fill-rule="evenodd" xlink:href="#path-1"></use>
                <rect stroke="#4A3D6E" stroke-width="8" x="97" y="7" width="107" height="80" rx="4"></rect>
            </g>
            <g id="Rectangle-2">
                <use fill="#FFFFFF" fill-rule="evenodd" xlink:href="#path-2"></use>
                <rect stroke="#4A3D6E" stroke-width="8" x="4" y="51" width="107" height="40" rx="4"></rect>
            </g>
            <g id="Rectangle-2">
                <use fill="#FFFFFF" fill-rule="evenodd" xlink:href="#path-3"></use>
                <rect stroke="#4A3D6E" stroke-width="8" x="194" y="30" width="107" height="59" rx="4"></rect>
            </g>
            <g id="Group" transform="translate(68.898666, 23.894209) rotate(36.000000) translate(-68.898666, -23.894209) translate(54.398666, 4.894209)" stroke="#4A3D6E">
                <path d="M4.55,36.5 L25.45,36.5" id="Line-2" stroke-width="6" stroke-linecap="round" stroke-linejoin="round"></path>
                <path d="M14.5,35.5 L14.5,23.9891356" id="Line-3" stroke-width="6" stroke-linecap="square"></path>
                <path d="M14.5000269,22 C5.02156601,22 0.188223695,14.6666667 0,0 L29,0 C28.8118122,14.6666667 23.9784879,22 14.5000269,22 Z" id="Triangle" stroke-width="4" stroke-linecap="round" stroke-linejoin="round"></path>
            </g>
            <g id="Group-2" transform="translate(198.000000, 34.000000)">
                <mask id="mask-5" fill="white">
                    <use xlink:href="#path-4"></use>
                </mask>
                <g id="Rectangle-3"></g>
                <path d="M13.5,-15 L26.7251682,-10.7028824 L37.8898943,-0.0118898933 C36.3006588,2.15382527 35.3036179,4.13985419 34.8987716,5.94619686 C34.4939253,7.75253953 34.4939253,10.5881014 34.8987716,14.4528824 C32.4746756,16.005043 30.9198656,17.2528949 30.2343413,18.196438 C29.5488171,19.1399811 28.3790927,21.6421293 26.7251682,25.7028824 C23.2768538,25.7780192 20.8806376,26.0339529 19.5365194,26.4706834 C18.1924012,26.9074139 16.180228,28.0838527 13.5,30 C10.09537,29.5920217 7.52146008,29.8621884 5.77827012,30.8105001 C4.03508017,31.7588117 1.98983646,33.6269945 -0.357460986,36.4150483 L-7.89877162,14.4528824 L-7.89877162,0.547117627 L0.274831823,-10.7028824 L13.5,-15 Z" id="Polygon" stroke="#F6BA4D" stroke-width="2" mask="url(#mask-5)"></path>
                <path d="M12,-14 L23.7426458,-10.1845831 L32.4756793,-0.195691968 C31.2025896,2.598121 30.4870533,4.65594575 30.3290704,5.97778226 C30.1710875,7.29961878 30.3947307,9.35744352 31,12.1512565 C28.523533,13.9109918 26.9038939,15.3158191 26.1410828,16.3657385 C25.3782717,17.4156579 24.5787927,19.340461 23.7426458,22.1401476 C20.4469863,22.0062105 18.204415,22.1324851 17.0149321,22.5189715 C15.8254491,22.905458 14.1538051,24.050989 12,25.9555645 C9.30081467,24.7242253 6.84600657,24.4057038 4.63557568,25 C2.42514479,25.5942962 0.539013655,26.8220596 -1.02281774,28.6832902 L-7,12.1512565 L-7,-0.195691968 L0.257354214,-10.1845831 L12,-14 Z" id="Polygon" stroke="#F6BA4D" stroke-width="2" mask="url(#mask-5)"></path>
                <path d="M10.5,-12 L20.0795268,-8.88742305 L27.1144076,-0.240289782 C26.5612366,1.38942947 26.1897674,2.77835166 26,3.92647677 C25.8102326,5.07460188 25.8102326,6.87708288 26,9.33391977 C24.0595736,10.744155 22.7667573,11.8932977 22.121551,12.7813479 C21.4763448,13.6693981 20.7956701,15.2365328 20.0795268,17.482752 C17.5444685,17.4376095 15.7554054,17.5844949 14.7123374,17.9234083 C13.6692694,18.2623216 12.2651569,19.1529618 10.5,20.595329 C7.66868342,19.4312794 5.66242563,18.9784743 4.48122663,19.2369137 C3.30002762,19.4953531 1.53704226,20.1827781 -0.807729473,21.2991886 L-5,9.33391977 L-5,-0.738590816 L0.920473174,-8.88742305 L10.5,-12 Z" id="Polygon" stroke="#F6BA4D" stroke-width="2" mask="url(#mask-5)"></path>
                <path d="M8,-10 L15.4164079,-7.59026301 L20.834067,-0.674555854 C20.059543,0.768763704 19.6287044,1.86613122 19.5415512,2.61754669 C19.4543979,3.36896216 19.6072142,4.66864095 20,6.51658305 C18.4249007,7.74049815 17.3807998,8.70556822 16.8676973,9.41179325 C16.3545948,10.1180183 15.8708316,11.2558727 15.4164079,12.8253564 C13.6436955,12.8432183 12.3709964,12.9776796 11.5983106,13.2287404 C10.8256248,13.4798013 9.62618794,14.1485856 8,15.2350934 C6.00105983,14.3581559 4.51533951,13.8721936 3.54283903,13.7772064 C2.57033855,13.6822193 1.30633623,13.8996075 -0.249167935,14.4293713 L-4,6.51658305 L-4,-1.28148966 L0.583592135,-7.59026301 L8,-10 Z" id="Polygon" stroke="#F6BA4D" stroke-width="2" mask="url(#mask-5)"></path>
                <path d="M5.5,-8 L10.7532889,-6.29310296 L15.2249245,-0.773222855 C14.5373405,0.201746806 14.1290323,0.924794346 14,1.39591977 C13.8709677,1.86704518 13.8709677,2.6348207 14,3.69924632 C12.969275,4.49881759 12.2761299,5.14330013 11.9205644,5.63269394 C11.564999,6.12208776 11.1759072,6.9671767 10.7532889,8.16796078 C9.42819749,8.20764899 8.50836546,8.31109049 7.9937928,8.47828528 C7.47922014,8.64548007 6.64795587,9.11100425 5.5,9.87485781 C4.05090118,9.59954708 2.98335437,9.43323259 2.29735956,9.37591434 C1.61136475,9.31859609 0.688430843,9.31859609 -0.471442156,9.37591434 L-3,3.69924632 L-3,-1.82438851 L0.246711096,-6.29310296 L5.5,-8 Z" id="Polygon" stroke="#F6BA4D" stroke-width="2" mask="url(#mask-5)"></path>
                <path d="M3.5,-6 L6.89918694,-4.89553721 L9,-2.0040161 L9,1.57010056 C8.17765633,2.09300445 7.66832873,2.48955622 7.47201719,2.75975588 C7.27570565,3.02995554 7.08476223,3.59724414 6.89918694,4.46162168 C6.09311843,4.36509406 5.54154343,4.36509406 5.24446195,4.46162168 C4.94738048,4.5581493 4.36589316,4.92630357 3.5,5.56608447 C2.48463633,4.97526319 1.71993529,4.60710893 1.20589687,4.46162168 C0.691858457,4.31613443 0.155789625,4.31613443 -0.402309623,4.46162168 L-2,1.57010056 L-2,-2.0040161 L0.100813062,-4.89553721 L3.5,-6 Z" id="Polygon" stroke="#F6BA4D" stroke-width="2" mask="url(#mask-5)"></path>
                <path d="M30.7508664,12.1646245 C32.1310376,12.8724308 33.5112088,13.5802371 34.8913801,14.2880434" id="Path-16" stroke="#F6BA4D" stroke-width="2" mask="url(#mask-5)"></path>
                <path d="M3.45672576,5.43768291 C4.19322833,6.79767425 4.9297309,8.15766559 5.66623348,9.51765693" id="Path-2" stroke="#F6BA4D" stroke-width="2" mask="url(#mask-5)"></path>
                <path d="M5.53285031,9.49315165 C6.39642878,11.4062179 7.26000725,13.3192841 8.12358573,15.2323503" id="Path-3" stroke="#F6BA4D" stroke-width="2" mask="url(#mask-5)"></path>
                <path d="M8.12358573,15.2323503 C8.97165453,16.8716191 9.81972333,18.5108879 10.6677921,20.1501567" id="Path-4" stroke="#F6BA4D" stroke-width="2" mask="url(#mask-5)"></path>
                <path d="M10.6677921,20.1889309 C11.1003052,22.0187618 11.5328182,23.8485928 11.9653312,25.6784238" id="Path-5" stroke="#F6BA4D" stroke-width="2" mask="url(#mask-5)"></path>
                <path d="M11.9653312,25.6784238 C12.5216114,26.9637619 13.0778916,28.2491 13.6341718,29.5344381" id="Path-6" stroke="#F6BA4D" stroke-width="2" mask="url(#mask-5)"></path>
                <path d="M6.79905984,4.25336444 C8.13537308,5.4007699 9.47168632,6.54817535 10.8079996,7.6955808" id="Path-7" stroke="#F6BA4D" stroke-width="2" mask="url(#mask-5)"></path>
                <path d="M10.9801569,7.97630584 C12.5839603,9.62550084 14.1877636,11.2746958 15.791567,12.9238908" id="Path-8" stroke="#F6BA4D" stroke-width="2" mask="url(#mask-5)"></path>
                <path d="M15.4944017,12.8063275 C17.0725624,14.2511051 18.6507231,15.6958826 20.2288838,17.1406602" id="Path-9" stroke="#F6BA4D" stroke-width="2" mask="url(#mask-5)"></path>
                <path d="M20.1835956,17.3233641 C21.3793912,18.9243757 22.5751868,20.5253873 23.7709825,22.126399" id="Path-10" stroke="#F6BA4D" stroke-width="2" mask="url(#mask-5)"></path>
                <path d="M23.7709825,22.126399 C24.8349459,23.2318249 25.8989093,24.3372508 26.9628727,25.4426768" id="Path-11" stroke="#F6BA4D" stroke-width="2" mask="url(#mask-5)"></path>
                <path d="M9.12768182,1.48426781 C10.805518,2.25892417 12.4833542,3.03358053 14.1611904,3.80823689" id="Path-12" stroke="#F6BA4D" stroke-width="2" mask="url(#mask-5)"></path>
                <path d="M14.1611904,3.80823689 C16.1428093,4.79909806 18.1244283,5.78995924 20.1060472,6.78082041" id="Path-13" stroke="#F6BA4D" stroke-width="2" mask="url(#mask-5)"></path>
                <path d="M19.9658398,6.48954879 C22.0127028,7.47741143 24.0595657,8.46527406 26.1064287,9.4531367" id="Path-14" stroke="#F6BA4D" stroke-width="2" mask="url(#mask-5)"></path>
                <path d="M26.0664138,9.29617883 C27.7227432,10.2988274 29.3790727,11.3014759 31.0354021,12.3041244" id="Path-15" stroke="#F6BA4D" stroke-width="2" mask="url(#mask-5)"></path>
            </g>
        </g>
    </g>
</svg>