<?xml version="1.0" encoding="UTF-8"?>
<svg width="357px" height="132px" viewBox="0 0 357 132" version="1.1" xmlns="http://www.w3.org/2000/svg" xmlns:xlink="http://www.w3.org/1999/xlink">
    <!-- Generator: Sketch 48.1 (47250) - http://www.bohemiancoding.com/sketch -->
    <title>Group 4</title>
    <desc>Created with Sketch.</desc>
    <defs>
        <rect id="path-1" x="44" y="18" width="278" height="33" rx="8"></rect>
    </defs>
    <g id="Artboard" stroke="none" stroke-width="1" fill="none" fill-rule="evenodd" transform="translate(-334.000000, -295.000000)">
        <g id="Group-4" transform="translate(329.000000, 295.000000)">
            <g id="Group-3">
                <path d="M88.2049969,2 C86.1711394,2 84.27575,3.03033254 83.1697278,4.73716919 L8.00227099,120.737169 C7.37259082,121.708905 7.03754011,122.842085 7.03754011,124 C7.03754011,127.313708 9.72383161,130 13.0375401,130 L353.807767,130 C354.941721,130 356.052462,129.678661 357.011264,129.073224 C359.813128,127.303982 360.650234,123.598367 358.880991,120.796503 L285.632573,4.79650288 C284.533308,3.05564939 282.618221,2 280.559348,2 L88.2049969,2 Z" id="Rectangle-3" stroke="#4A3D6E" stroke-width="4"></path>
                <path d="M181.5,2 L181.5,130.5" id="Line-3" stroke="#4A3D6E" stroke-width="2" stroke-linecap="square"></path>
                <g id="Rectangle-2">
                    <use fill="#FFFFFF" fill-rule="evenodd" xlink:href="#path-1"></use>
                    <rect stroke="#4A3D6E" stroke-width="4" x="46" y="20" width="274" height="29" rx="8"></rect>
                </g>
            </g>
            <g id="Group" transform="translate(62.000000, 8.000000)">
                <circle id="Oval" fill="#F5A623" cx="11" cy="97" r="5"></circle>
                <g id="Group-2" transform="translate(0.000000, 76.000000)">
                    <path d="M19.7526418,23.2898851 C29.7725937,23.2898851 37.8953697,19.0365902 37.8953697,13.7898851 C37.8953697,11.242804 35.9810402,8.92984426 32.8646592,7.22397285 C29.5616402,5.41593792 24.9082781,4.28988509 19.7526418,4.28988509 C9.73268984,4.28988509 1.60991388,8.54317997 1.60991388,13.7898851 C1.60991388,19.0365902 9.73268984,23.2898851 19.7526418,23.2898851 Z" id="Oval-2" fill="#E46A6A" transform="translate(19.752642, 13.789885) rotate(12.000000) translate(-19.752642, -13.789885) "></path>
                    <path d="M38.5,19.5 L50.5,23.5" id="Line-2" stroke="#4A3D6E" stroke-width="4" stroke-linecap="round"></path>
                </g>
                <circle id="Oval" stroke="#F5A623" stroke-width="3" fill="#F5A623" cx="192.5" cy="3.5" r="3.5"></circle>
            </g>
            <g id="accent-bars" transform="translate(49.000000, 25.000000)" stroke="#4B3E6F" stroke-width="5">
                <path d="M61.5,22.5 L61.5,12.5" id="Line-4" stroke-linecap="round"></path>
                <path d="M46.5,22.5 L46.5,1.5" id="Line-4" stroke-linecap="round"></path>
                <path d="M1.5,22.5 L1.5,10.5" id="Line-4" stroke-linecap="round"></path>
                <path d="M26.5,22.5 L26.5,8.5" id="Line-4" stroke-linecap="round"></path>
                <path d="M41.5,22.5 L41.5,13.5" id="Line-4" stroke-linecap="round"></path>
                <path d="M56.5,22.5 L56.5,10.5" id="Line-4" stroke-linecap="round"></path>
                <path d="M51.5,22.5 L51.5,11.5" id="Line-4" stroke-linecap="round"></path>
                <path d="M36.5,22.5 L36.5,8.5" id="Line-4" stroke-linecap="round"></path>
                <path d="M21.5,22.5 L21.5,10.5" id="Line-4" stroke-linecap="round"></path>
                <path d="M31.5,22.5 L31.5,8.5" id="Line-4" stroke-linecap="round"></path>
                <path d="M71.5,22.5 L71.5,8.5" id="Line-4" stroke-linecap="round"></path>
                <path d="M66.5,22.5 L66.5,7.5" id="Line-4" stroke-linecap="round"></path>
                <path d="M76.5,22.5 L76.5,8.89668396" id="Line-4" stroke-linecap="round"></path>
                <path d="M81.5,22.5 L81.5,10.5" id="Line-4" stroke-linecap="round"></path>
                <path d="M6.5,22.5 L6.5,7.5" id="Line-4" stroke-linecap="round"></path>
                <path d="M16.5,22.5 L16.5,9.5" id="Line-4" stroke-linecap="round"></path>
                <path d="M11.5,22.5 L11.5,9.5" id="Line-4" stroke-linecap="round"></path>
                <path d="M86.5,22.5 L86.5,1.5" id="Line-4" stroke-linecap="round"></path>
                <path d="M96.5,22.5 L96.5,4.5" id="Line-4" stroke-linecap="round"></path>
                <path d="M101.5,22.5 L101.5,6.5" id="Line-4" stroke-linecap="round"></path>
                <path d="M106.5,22.5 L106.5,1.5" id="Line-4" stroke-linecap="round"></path>
                <path d="M111.5,22.5 L111.5,10.5" id="Line-4" stroke-linecap="round"></path>
                <path d="M116.5,22.5 L116.5,10.5" id="Line-4" stroke-linecap="round"></path>
                <path d="M91.5,22.5 L91.5,4.5" id="Line-4" stroke-linecap="round"></path>
                <path d="M141.5,22.5 L141.5,16.5" id="Line-4" stroke-linecap="round"></path>
                <path d="M136.5,22.5 L136.5,16.5" id="Line-4" stroke-linecap="round"></path>
                <path d="M146.5,22.5 L146.5,8.5" id="Line-4" stroke-linecap="round"></path>
                <path d="M156.5,22.5 L156.5,1.5" id="Line-4" stroke-linecap="round"></path>
                <path d="M161.5,22.5 L161.5,2.5" id="Line-4" stroke-linecap="square"></path>
                <path d="M166.5,22.5 L166.5,0.5" id="Line-4" stroke-linecap="round"></path>
                <path d="M171.5,22.5 L171.5,1.5" id="Line-4" stroke-linecap="round"></path>
                <path d="M176.5,22.5 L176.5,3.5" id="Line-4" stroke-linecap="round"></path>
                <path d="M121.5,22.5 L121.5,12.5" id="Line-4" stroke-linecap="round"></path>
                <path d="M151.5,22.5 L151.5,8.5" id="Line-4" stroke-linecap="round"></path>
                <path d="M131.5,22.5 L131.5,16.5" id="Line-4" stroke-linecap="round"></path>
                <path d="M126.5,22.5 L126.5,7.5" id="Line-4" stroke-linecap="round"></path>
                <path d="M201.5,22.5 L201.5,11.5" id="Line-4" stroke-linecap="round"></path>
                <path d="M196.5,22.5 L196.5,9.5" id="Line-4" stroke-linecap="round"></path>
                <path d="M206.5,22.5 L206.5,11.5" id="Line-4" stroke-linecap="round"></path>
                <path d="M211.5,22.5 L211.5,8.5" id="Line-4" stroke-linecap="round"></path>
                <path d="M191.5,22.5 L191.5,9.5" id="Line-4" stroke-linecap="round"></path>
                <path d="M186.5,22.5 L186.5,7.5" id="Line-4" stroke-linecap="round"></path>
                <path d="M261.5,22.5 L261.5,4.5" id="Line-4" stroke-linecap="round"></path>
                <path d="M256.5,22.5 L256.5,9.5" id="Line-4" stroke-linecap="round"></path>
                <path d="M241.5,22.5 L241.5,7.5" id="Line-4" stroke-linecap="round"></path>
                <path d="M246.5,22.5 L246.5,7.5" id="Line-4" stroke-linecap="round"></path>
                <path d="M251.5,22.5 L251.5,9.5" id="Line-4" stroke-linecap="round"></path>
                <path d="M216.5,22.5 L216.5,4.5" id="Line-4" stroke-linecap="round"></path>
                <path d="M221.5,22.5 L221.5,4.5" id="Line-4" stroke-linecap="round"></path>
                <path d="M226.5,22.5 L226.5,4.5" id="Line-4" stroke-linecap="round"></path>
                <path d="M231.5,22.5 L231.5,7.5" id="Line-4" stroke-linecap="round"></path>
                <path d="M236.5,22.5 L236.5,7.5" id="Line-4" stroke-linecap="round"></path>
                <path d="M181.5,22.5 L181.5,9.5" id="Line-4" stroke-linecap="round"></path>
                <path d="M266.5,22.5 L266.5,3.5" id="Line-4" stroke-linecap="round"></path>
            </g>
            <g id="white-bars" transform="translate(49.000000, 24.000000)" stroke="#FFFFFF" stroke-linecap="round" stroke-width="5">
                <path d="M81.5,0.5 L81.5,13" id="Line-5"></path>
                <path d="M91.5,4.5 L91.5,7.5" id="Line-5"></path>
                <path d="M101.5,0.5 L101.5,8.5" id="Line-5"></path>
                <path d="M111.5,0.5 L111.5,13" id="Line-5"></path>
                <path d="M71.5,0.5 L71.5,9.5" id="Line-5"></path>
                <path d="M61.5,0.5 L61.5,16.5" id="Line-5"></path>
                <path d="M21.5,0.5 L21.5,13" id="Line-5"></path>
                <path d="M31.5,4.5 L31.5,17" id="Line-5"></path>
                <path d="M41.5,0.5 L41.5,19.5" id="Line-5"></path>
                <path d="M51.5,0.5 L51.5,13" id="Line-5"></path>
                <path d="M11.5,0.5 L11.5,10.5" id="Line-5"></path>
                <path d="M1.5,2.5 L1.5,16.5" id="Line-5"></path>
                <path d="M141.5,0.5 L141.5,17.5" id="Line-5"></path>
                <path d="M151.5,4.5 L151.5,17" id="Line-5"></path>
                <path d="M171.5,0.5 L171.5,4.5" id="Line-5"></path>
                <path d="M161.5,0.5 L161.5,2.5" id="Line-5"></path>
                <path d="M131.5,0.5 L131.5,17.5" id="Line-5"></path>
                <path d="M121.5,0.5 L121.5,16.5" id="Line-5"></path>
                <path d="M201.5,0.5 L201.5,13" id="Line-5"></path>
                <path d="M211.5,4.5 L211.5,13.5" id="Line-5"></path>
                <path d="M221.5,0.5 L221.5,5.5" id="Line-5"></path>
                <path d="M231.5,0.5 L231.5,8.5" id="Line-5"></path>
                <path d="M191.5,0.5 L191.5,10.5" id="Line-5"></path>
                <path d="M181.5,0.5 L181.5,16.5" id="Line-5"></path>
                <path d="M261.5,0.5 L261.5,13" id="Line-5"></path>
                <path d="M281.5,0.5 L281.5,19.5" id="Line-5"></path>
                <path d="M251.5,0.5 L251.5,10.5" id="Line-5"></path>
                <path d="M241.5,0.5 L241.5,8.5" id="Line-5"></path>
            </g>
        </g>
    </g>
</svg>